<?xml version="1.0" standalone="no"?>
<!DOCTYPE svg PUBLIC "-//W3C//DTD SVG 20010904//EN"
 "http://www.w3.org/TR/2001/REC-SVG-20010904/DTD/svg10.dtd">
<svg version="1.0" xmlns="http://www.w3.org/2000/svg"
 viewBox="0 0 2600.000000 2600.000000"
 preserveAspectRatio="xMidYMid meet">
<metadata>
Created by potrace 1.13, written by Peter Selinger 2001-2015
</metadata>
<g transform="translate(0.000000,2600.000000) scale(0.100000,-0.100000)"
fill="#ffffff" stroke="none">
<path d="M7363 16865 l-1703 -1135 -580 -1160 -580 -1160 0 -620 0 -620 1160
-1740 1160 -1740 3283 0 3282 0 1090 -1090 1090 -1090 1755 0 1755 0 1723
1723 1722 1722 0 1193 0 1192 -569 1138 -569 1137 -1139 1136 -1138 1137
-2227 556 -2228 556 -2792 0 -2793 0 -1702 -1135z m6675 487 c-13 -22 -198
-332 -413 -690 -214 -358 -394 -651 -400 -651 -5 0 -629 310 -1385 689 l-1375
689 1798 0 1798 1 -23 -38z m1585 -223 l847 -211 0 -1182 0 -1181 -452 -452
-453 -453 -965 0 -965 0 -343 343 c-188 188 -342 347 -342 352 0 5 404 684
898 1507 647 1079 901 1496 912 1493 8 -2 396 -99 863 -216z m-6428 -1159
c130 -652 239 -1195 242 -1207 l5 -23 -651 0 -651 0 -815 407 c-448 225 -814
411 -813 415 2 5 550 373 1218 818 1018 679 1216 807 1222 793 4 -10 114 -551
243 -1203z m3713 -496 c-2 -6 -394 -664 -873 -1462 l-870 -1451 -332 -1 c-307
0 -332 1 -337 18 -3 9 -208 1034 -456 2277 -248 1243 -454 2268 -456 2278 -4
12 519 -244 1660 -815 917 -458 1665 -838 1664 -844z m5040 1075 l847 -211
255 -254 255 -254 -780 0 -780 0 -332 -332 -333 -333 0 798 c0 527 3 797 10
797 6 0 391 -95 858 -211z m2380 -1742 l412 -412 -975 -1463 -975 -1462 -910
0 -910 0 -454 908 -454 907 966 968 967 967 960 0 960 0 413 -413z m-13577
-53 c392 -195 708 -359 703 -363 -5 -5 -533 -358 -1174 -785 l-1165 -776 -3
220 -2 219 460 921 c253 506 462 920 465 920 3 0 325 -160 716 -356z m2970
-1411 l156 -783 -748 0 -749 0 0 785 0 785 592 -2 592 -3 157 -782z m-1952
-790 l0 -1308 -412 -823 -413 -823 -858 1287 c-640 960 -855 1289 -845 1295 8
4 577 384 1264 843 688 459 1253 835 1258 835 4 1 7 -587 6 -1306z m13741 447
l410 -820 0 -983 0 -982 -395 -395 -395 -395 -892 892 -892 892 870 1305 c478
718 872 1306 876 1306 5 0 192 -369 418 -820z m-8563 478 l321 -323 496 -992
496 -993 -467 -935 -468 -935 -342 0 -341 0 -487 1460 -486 1459 473 790 c260
435 475 790 478 791 3 0 150 -145 327 -322z m3034 -1390 l476 -953 -132 -525
c-72 -289 -135 -538 -139 -554 -7 -29 -23 -14 -672 635 l-666 664 -419 837
c-230 461 -419 840 -419 843 0 3 336 5 748 5 l747 0 476 -952z m-4425 -1450
c240 -722 439 -1319 442 -1325 3 -10 -58 -13 -284 -13 l-289 0 -1523 1015
-1522 1015 0 310 0 310 1369 0 1369 0 438 -1312z m8211 -710 l933 -933 -937
-937 -938 -938 -1374 0 c-1094 0 -1372 3 -1369 13 3 6 214 848 469 1870 l464
1857 910 0 910 0 932 -932z m-10482 65 l1040 -693 -1423 0 -1422 0 355 711
356 711 27 -18 c15 -10 495 -329 1067 -711z m6062 5 c369 -369 653 -661 653
-671 0 -27 -472 -1907 -479 -1907 -3 0 -373 367 -821 815 l-815 815 400 800
c220 440 402 800 405 800 3 0 299 -294 657 -652z"/>
</g>
</svg>
