<?xml version="1.0" encoding="UTF-8"?>
<svg width="1802px" height="1149px" viewBox="0 0 1802 1149" version="1.1" xmlns="http://www.w3.org/2000/svg" xmlns:xlink="http://www.w3.org/1999/xlink">
    <title>damagecontrolstudio-logo 2</title>
    <g id="Page-1" stroke="none" stroke-width="1" fill="none" fill-rule="evenodd">
        <g id="damagecontrolstudio-logo" fill="#FFFFFF" fill-rule="nonzero">
            <g id="Group" transform="translate(901.000000, 574.500000) scale(-1, 1) rotate(-180.000000) translate(-901.000000, -574.500000) ">
                <path d="M286.3,1035.5 L116,922 L58,806 L0,690 L0,628 L0,566 L116,392 L232,218 L560.3,218 L888.5,218 L997.5,109 L1106.5,0 L1282,0 L1457.5,0 L1629.8,172.3 L1802,344.5 L1802,463.8 L1802,583 L1745.1,696.8 L1688.2,810.5 L1574.3,924.1 L1460.5,1037.8 L1237.8,1093.4 L1015,1149 L735.8,1149 L456.5,1149 L286.3,1035.5 Z M953.8,1084.2 C952.5,1082 934,1051 912.5,1015.2 C891.1,979.4 873.1,950.1 872.5,950.1 C872,950.1 809.6,981.1 734,1019 L596.5,1087.9 L776.3,1087.9 L956.1,1088 L953.8,1084.2 Z M1112.3,1061.9 L1197,1040.8 L1197,922.6 L1197,804.5 L1151.8,759.3 L1106.5,714 L1010,714 L913.5,714 L879.2,748.3 C860.4,767.1 845,783 845,783.5 C845,784 885.4,851.9 934.8,934.2 C999.5,1042.1 1024.9,1083.8 1026,1083.50161 C1026.8,1083.3 1065.6,1073.6 1112.3,1061.9 Z M469.5,946 C482.5,880.8 493.4,826.5 493.7,825.3 L494.2,823 L429.1,823 L364,823 L282.5,863.7 C237.7,886.2 201.1,904.8 201.199796,905.2 C201.4,905.7 256.2,942.5 323,987 C424.8,1054.9 444.6,1067.7 445.2,1066.3 C445.6,1065.3 456.6,1011.2 469.5,946 Z M840.8001,896.4 C840.6,895.8 801.4,830 753.5,750.2 L666.5,605.1 L633.3,605 C602.6,605 600.1,605.1 599.6,606.8 C599.3,607.7 578.8,710.2 554,834.5 C529.2,958.8 508.6,1061.3 508.397723,1062.3 C508,1063.5 560.3,1037.9 674.4,980.8 C766.1,935 840.9,897 840.8001,896.4 Z M1344.8,1003.9 L1429.5,982.8 L1455,957.4 L1480.5,932 L1402.5,932 L1324.5,932 L1291.3,898.8 L1258,865.5 L1258,945.3 C1258,998 1258.3,1025 1259,1025 C1259.6,1025 1298.1,1015.5 1344.8,1003.9 Z M1582.8,829.7 L1624,788.5 L1526.5,642.2 L1429,496 L1338,496 L1247,496 L1201.6,586.8 L1156.2,677.5 L1252.8,774.3 L1349.5,871 L1445.5,871 L1541.5,871 L1582.8,829.7 Z M225.1,824.4 C264.3,804.9 295.9,788.5 295.4,788.1 C294.9,787.6 242.1,752.3 178,709.6 L61.5,632 L61.2,654 L61,675.9 L107,768 C132.3,818.6 153.2,860 153.5,860 C153.8,860 186,844 225.1,824.4 Z M522.1,683.3 L537.7,605 L462.9,605 L388,605 L388,683.5 L388,762 L447.2,761.8 L506.4,761.5 L522.1,683.3 Z M326.9,604.3 L326.9,473.5 L285.7,391.2 L244.4,308.9 L158.6,437.6 C94.6,533.6 73.1,566.5 74.1,567.1 C74.9,567.5 131.8,605.5 200.5,651.4 C269.3,697.3 325.8,734.900127 326.3,734.900127 C326.7,735 327,676.2 326.9,604.3 Z M1701,649 L1742,567 L1742,468.7 L1742,370.5 L1702.5,331 L1663,291.5 L1573.8,380.7 L1484.6,469.9 L1571.6,600.4 C1619.4,672.2 1658.8,731 1659.2,731 C1659.7,731 1678.4,694.1 1701,649 Z M844.7,696.8 L876.8,664.5 L926.4,565.3 L976,466 L929.3,372.5 L882.5,279 L848.3,279 L814.2,279 L765.5,425 L716.9,570.9 L764.2,649.9 C790.2,693.4 811.7,728.9 812,729 C812.3,729 827,714.5 844.7,696.8 Z M1148.1,557.8 L1195.7,462.5 L1182.5,410 C1175.3,381.1 1169,356.2 1168.6,354.6 C1167.9,351.7 1166.3,353.2 1101.4,418.1 L1034.8,484.5 L992.9,568.2 C969.9,614.3 951,652.2 951,652.5 C951,652.8 984.6,653 1025.8,653 L1100.5,653 L1148.1,557.8 Z M705.6,412.8 C729.6,340.6 749.5,280.9 749.8,280.3 C750.1,279.3 744,279 721.4,279 L692.5,279 L540.2,380.5 L388,482 L388,513 L388,544 L524.9,544 L661.8,544 L705.6,412.8 Z M1526.7,341.8 L1620,248.5 L1526.3,154.8 L1432.5,61 L1295.1,61 C1185.7,61 1157.9,61.3 1158.19761,62.3 C1158.5,62.9 1179.6,147.1 1205.1,249.3 L1251.5,435 L1342.5,435 L1433.5,435 L1526.7,341.8 Z M478.5,348.3 L582.5,279 L440.2,279 L298,279 L333.5,350.1 L369.1,421.2 L371.8,419.4 C373.3,418.4 421.3,386.5 478.5,348.3 Z M1084.7,348.8 C1121.6,311.9 1150,282.7 1150,281.7 C1150,279 1102.8,91 1102.1,91 C1101.8,91 1064.8,127.7 1020,172.5 L938.5,254 L978.5,334 C1000.5,378 1018.7,414 1019,414 C1019.3,414 1048.9,384.6 1084.7,348.8 Z" id="Shape" transform="translate(901.000000, 574.500000) scale(-1, 1) translate(-901.000000, -574.500000) "></path>
            </g>
        </g>
    </g>
</svg>